<svg viewBox="0 0 1400 360" xmlns="http://www.w3.org/2000/svg" font-family="'JetBrains Mono','SF Mono',Consolas,'Courier New',monospace">

<rect x="0" y="0" width="1400" height="360" fill="#0d1117"/>
<rect x="0" y="0" width="1400" height="2" fill="#58a6ff"/>

<text x="64" y="76" font-size="13" fill="#58a6ff" letter-spacing="2">x86-64 &#183; NASM &#183; SYSTEM V ABI</text>

<text x="64" y="146" font-size="56" font-weight="700" fill="#e6edf3">GEMV<tspan fill="#58a6ff">.asm</tspan></text>
<text x="64" y="178" font-size="16" fill="#8b949e">Hand-written matrix&#8211;vector multiply &#8212; scalar baseline vs AVX2 + FMA</text>

<line x1="64" y1="204" x2="600" y2="204" stroke="#21262d" stroke-width="1"/>

<text x="64" y="240" font-size="13" fill="#8b949e">measured speedup</text>
<text x="64" y="270" font-size="34" font-weight="700" fill="#58a6ff">6.5&#215;&#8211;11.6&#215;</text>
<text x="64" y="296" font-size="12.5" fill="#6e7681">no intrinsics &#183; no autovectorization &#183; called from C via extern "C"</text>

<line x1="64" y1="316" x2="600" y2="316" stroke="#21262d" stroke-width="1"/>
<text x="64" y="338" font-size="12" fill="#6e7681">src/matvec_scalar.asm &#183; src/matvec_simd.asm &#183; bench/main.c</text>

<text x="800" y="76" font-size="12.5" fill="#8b949e">scalar &#8212; xmm, 1 lane / instruction</text>
<rect x="800" y="88" width="50" height="40" rx="3" fill="#58a6ff"/>
<text x="825" y="113" font-size="11.5" fill="#0d1117" text-anchor="middle" font-weight="700">fp32</text>
<g fill="none" stroke="#30363d" stroke-width="1.5">
<rect x="860" y="88" width="50" height="40" rx="3"/>
<rect x="920" y="88" width="50" height="40" rx="3"/>
<rect x="980" y="88" width="50" height="40" rx="3"/>
<rect x="1040" y="88" width="50" height="40" rx="3"/>
<rect x="1100" y="88" width="50" height="40" rx="3"/>
<rect x="1160" y="88" width="50" height="40" rx="3"/>
<rect x="1220" y="88" width="50" height="40" rx="3"/>
</g>

<text x="800" y="168" font-size="12.5" fill="#8b949e">AVX2 + FMA &#8212; ymm, 8 lanes / instruction</text>
<g fill="#58a6ff">
<rect x="800" y="180" width="50" height="40" rx="3"/>
<rect x="860" y="180" width="50" height="40" rx="3"/>
<rect x="920" y="180" width="50" height="40" rx="3"/>
<rect x="980" y="180" width="50" height="40" rx="3"/>
<rect x="1040" y="180" width="50" height="40" rx="3"/>
<rect x="1100" y="180" width="50" height="40" rx="3"/>
<rect x="1160" y="180" width="50" height="40" rx="3"/>
<rect x="1220" y="180" width="50" height="40" rx="3"/>
</g>
<g font-size="11.5" fill="#0d1117" text-anchor="middle" font-weight="700">
<text x="825" y="205">fp32</text><text x="885" y="205">fp32</text><text x="945" y="205">fp32</text><text x="1005" y="205">fp32</text>
<text x="1065" y="205">fp32</text><text x="1125" y="205">fp32</text><text x="1185" y="205">fp32</text><text x="1245" y="205">fp32</text>
</g>

<text x="1270" y="250" font-size="12.5" fill="#6e7681" text-anchor="end">256-bit register &#8212; one FMA per cycle</text>
</svg>
